<svg xmlns="http://www.w3.org/2000/svg" width="865.76" height="682.89" viewBox="0 0 865.76 682.89"><rect x="16.74" y="625.82" width="832.29" height="0.42" fill="#ebebeb"/><rect x="710.5" y="652.6" width="55.13" height="0.42" fill="#ebebeb"/><rect x="450.08" y="647.39" width="21.46" height="0.42" fill="#ebebeb"/><rect x="553.61" y="649.15" width="45.18" height="0.42" fill="#ebebeb"/><rect x="615.43" y="637.15" width="93.4" height="0.42" fill="#ebebeb"/><rect x="104.06" y="656.41" width="44.16" height="0.42" fill="#ebebeb"/><rect x="163.04" y="656.41" width="38.29" height="0.42" fill="#ebebeb"/><rect x="234.8" y="647.19" width="101.22" height="0.42" fill="#ebebeb"/><path d="M411.24,551.58H89.83a9.52,9.52,0,0,1-9.49-9.51V90.26a9.5,9.5,0,0,1,9.49-9.42H411.24a9.5,9.5,0,0,1,9.51,9.5h0V542.07A9.51,9.51,0,0,1,411.24,551.58ZM89.83,81.17a9.09,9.09,0,0,0-9.07,9.09V542.07a9.09,9.09,0,0,0,9.07,9.09H411.24a9.1,9.1,0,0,0,9.09-9.09V90.26a9.1,9.1,0,0,0-9.09-9.09Z" fill="#ebebeb"/><path d="M771.3,551.58H449.88a9.53,9.53,0,0,1-9.51-9.51V90.26a9.51,9.51,0,0,1,9.51-9.42H771.3a9.5,9.5,0,0,1,9.48,9.42V542.07A9.51,9.51,0,0,1,771.3,551.58ZM449.88,81.17a9.1,9.1,0,0,0-9.09,9.09V542.07a9.1,9.1,0,0,0,9.09,9.09H771.3a9.1,9.1,0,0,0,9.09-9.09V90.26a9.1,9.1,0,0,0-9.09-9.09Z" fill="#ebebeb"/><path d="M794.19,312.49a89.51,89.51,0,0,0-1.66-54.93,77.42,77.42,0,0,0-35-116.27,133.57,133.57,0,0,0-211.22-89.4A68.24,68.24,0,0,0,428.69,98.38a103,103,0,0,0-58.46,167.54,77.55,77.55,0,0,0,86.45,112.89,119.75,119.75,0,0,0,161.17,30.73c12.53,29.11,22.82,72.79.66,115.62,80.49-7.89,138.6-85.08,126.74-155.8A89.9,89.9,0,0,0,794.19,312.49Z" fill="#ebebeb"/><path d="M639.82,509.18a1.66,1.66,0,0,1-1.6-2.15c11.34-39.48,1-77.33-9.65-102.14l-5.41-12.56-11.55,7.34A108.08,108.08,0,0,1,466.17,372l-4.63-6.38-7.62,1.9a65.85,65.85,0,0,1-73.44-95.93l3.88-7-5.18-6.13A91.4,91.4,0,0,1,431,109.8l9.26-1.87.1-9.42a56.59,56.59,0,0,1,97.59-38.58L545,67.32l8.32-6a121.9,121.9,0,0,1,192.84,81.57l1,6.66,6.31,2.49a65.7,65.7,0,0,1,29.65,98.76l-3.43,4.91,2,5.66a78.35,78.35,0,0,1-41.25,97.48l-8.1,3.73,1.48,8.79c5,30.17-4,63.13-25,90.43a134.91,134.91,0,0,1-68.55,47.39A1.55,1.55,0,0,1,639.82,509.18Zm-15.9-120.93a1.35,1.35,0,0,1,.49,0,1.64,1.64,0,0,1,1,.93l6.17,14.35C642.23,428.21,652.5,465.6,642.22,505a131.73,131.73,0,0,0,64-45.34c20.34-26.63,29.19-58.59,24.3-87.86l-1.67-10a1.65,1.65,0,0,1,.94-1.79l9.25-4.25a75,75,0,0,0,39.44-93.21l-2.3-6.46a1.68,1.68,0,0,1,.21-1.52l3.92-5.62a62.34,62.34,0,0,0-28.14-93.75l-7.22-2.86a1.69,1.69,0,0,1-1-1.32l-1.08-7.67A118.54,118.54,0,0,0,555.21,64l-9.44,6.88a1.66,1.66,0,0,1-2.18-.19l-8.07-8.43a53.29,53.29,0,0,0-91.82,36.3l-.12,10.79a1.65,1.65,0,0,1-1.33,1.66l-10.57,2.13a88.07,88.07,0,0,0-49.94,143.15l5.91,7a1.67,1.67,0,0,1,.19,1.88l-4.43,8a62.55,62.55,0,0,0,69.73,91.08l8.72-2.16a1.65,1.65,0,0,1,1.75.63l5.27,7.27a104.66,104.66,0,0,0,141,26.89l13.2-8.33a1.75,1.75,0,0,1,.83-.31Z" fill="#fff"/><path d="M523.08,232.63l-44.61-7,.69-4.46a56,56,0,0,1,5.45-18.09,41.74,41.74,0,0,1,9.73-11.79q6-5,26.16-17.08c7.14-4.19,11.06-8.42,11.66-12.73a13.36,13.36,0,0,0-2.25-10.64q-3.25-4.17-11-5.37a18.81,18.81,0,0,0-14.67,3.33q-6.33,4.67-10,18.17l-44.67-12.73q6.26-24.75,24.56-37.6t51.17-7.73q25.61,4,39.67,17.11,19.11,17.79,15.36,41.85a37.54,37.54,0,0,1-8.5,18.31q-7,8.43-26.09,19.15-13.31,7.56-17.31,12.76A31.3,31.3,0,0,0,523.08,232.63Zm-48,4.67,47.79,7.45-6.56,42.14-47.78-7.44Z" fill="#fff"/><path d="M636.94,297.93l-24.77-20,2-2.48a39.54,39.54,0,0,1,9.73-9.1A29.55,29.55,0,0,1,634,262.62a174.41,174.41,0,0,1,22-1.15q8.74,0,11.65-3.61a9.25,9.25,0,0,0,2.39-7.29,11.64,11.64,0,0,0-4.81-7.19,13.21,13.21,0,0,0-10.13-3.13q-5.53.6-12.54,7.54l-22.75-23.62q12.58-12.88,28.3-14.23t34,13.43q14.21,11.5,18.12,24.52,5.37,17.63-5.44,31a26.58,26.58,0,0,1-11.65,8.22q-7.25,2.66-22.71,2.43c-7.2,0-12.23.47-15.09,1.67A22.26,22.26,0,0,0,636.94,297.93ZM606,283.76l26.53,21.49-19,23.41L587,307.22Z" fill="#fff"/><path d="M643.86,153.74,633.14,139.1l1.47-1.09a23.21,23.21,0,0,1,6.66-3.59,16.57,16.57,0,0,1,6.11-.58,93.62,93.62,0,0,1,12.28,2.56c3.23.83,5.54.73,7-.3a5.37,5.37,0,0,0,2.38-3.66,6.65,6.65,0,0,0-1.67-4.66,7.59,7.59,0,0,0-5.12-3.2c-2.08-.3-4.75.47-8,2.33l-9.11-16.3a25.21,25.21,0,0,1,17.66-3.72q8.87,1.55,16.77,12.31,6.13,8.43,6.42,16.13a18.13,18.13,0,0,1-7.51,16.28,15,15,0,0,1-7.54,2.83,38.16,38.16,0,0,1-12.85-1.95,24.6,24.6,0,0,0-8.55-1.29A12.73,12.73,0,0,0,643.86,153.74Zm-15-12.28,11.49,15.68-13.83,10.12L615.05,151.6Z" fill="#fff"/><path d="M230.37,361.43a78.09,78.09,0,0,1-40-11.07c-16.9-10-28.83-25.67-32.89-42.93a48.37,48.37,0,0,1-44.95-45.71,41.09,41.09,0,0,1-9.29-8.9A41.62,41.62,0,0,1,107,197.36a71.19,71.19,0,0,1,86-85.5,37,37,0,0,1,63.25-7.8,37.55,37.55,0,0,1,4.58,7.65,55.2,55.2,0,0,1,61.59,71.08A41.88,41.88,0,0,1,301.8,256a63.38,63.38,0,0,1-22.54,34,64.1,64.1,0,0,1-49.59,12.62c-.17,16.16,3.58,38.08,21.64,53.76a1.34,1.34,0,0,1,.41,1.27,1.27,1.27,0,0,1-.91,1A73.25,73.25,0,0,1,230.37,361.43Zm-54.28-249a68.61,68.61,0,0,0-66.42,85,1.29,1.29,0,0,1-.38,1.27A39.21,39.21,0,0,0,114.7,260a1.34,1.34,0,0,1,.6,1,45.76,45.76,0,0,0,43.43,43.9,1.29,1.29,0,0,1,1.19,1c3.68,16.93,15.32,32.31,31.9,42.2a74.3,74.3,0,0,0,56,8.55C229.94,340,226.61,317.29,227,301a1.34,1.34,0,0,1,1.38-1.28l.17,0a61.32,61.32,0,0,0,70.84-45.21,1.28,1.28,0,0,1,1.08-1A39.27,39.27,0,0,0,320,184.21a1.3,1.3,0,0,1-.41-1.42,52.58,52.58,0,0,0-59.41-68.36,1.3,1.3,0,0,1-1.45-.79,34.44,34.44,0,0,0-63.77.22,1.33,1.33,0,0,1-1.53.78A69.72,69.72,0,0,0,176.09,112.46Z" fill="#e6e6e6"/><path d="M184.18,222.32l-23,5.41-.53-2.29a29,29,0,0,1-.92-9.86,21.61,21.61,0,0,1,2.38-7.6,127.14,127.14,0,0,1,9.32-13.44q4-5.16,3.18-8.47a6.86,6.86,0,0,0-3.18-4.71,8.58,8.58,0,0,0-6.39-.45,9.85,9.85,0,0,0-6.44,4.51c-1.43,2.35-1.85,5.93-1.27,10.77l-24.08,2.56a32.88,32.88,0,0,1,4.42-23Q144,165.88,161,161.9q13.19-3.12,22.59.48,12.75,4.85,15.68,17.26a19.55,19.55,0,0,1-.5,10.59q-1.66,5.45-8.87,14.42-5,6.28-5.88,9.58A16.3,16.3,0,0,0,184.18,222.32ZM161.84,234l24.63-5.8,5.05,21.71L167,255.62Z" fill="#ebebeb"/><path d="M242.7,173.7l-15.94-4.86.48-1.66a20.73,20.73,0,0,1,2.93-6.35,15.19,15.19,0,0,1,4.16-3.79,88.06,88.06,0,0,1,10.45-4.81q4.25-1.66,5-4a4.89,4.89,0,0,0-.27-4,6.12,6.12,0,0,0-3.74-2.54,7,7,0,0,0-5.53.48,12,12,0,0,0-4.6,6.12l-15.68-7a23.24,23.24,0,0,1,10.92-12.47q7.37-3.78,19.11-.18a26.84,26.84,0,0,1,13.62,8.32A16.56,16.56,0,0,1,267.07,153,13.87,13.87,0,0,1,263,159.3,35.56,35.56,0,0,1,252.47,165a23.07,23.07,0,0,0-7,3.76A11.77,11.77,0,0,0,242.7,173.7Zm-17.77-.78L242,178.11l-4.57,15.08L220.33,188Z" fill="#ebebeb"/><rect x="498.85" y="339.89" width="28.7" height="35.54" fill="#e1e1e2"/><path d="M332.84,184.15c-9.8,10.7-38.93,46.61-53.68,109.23a6.27,6.27,0,0,0,3.65,7.2l60.48,25.59a6.24,6.24,0,0,0,8.2-3.32c7.89-18.65,33.5-77.47,51.94-100.05a6.25,6.25,0,0,0-2.07-9.54l-61.12-30.49A6.25,6.25,0,0,0,332.84,184.15Z" fill="#e6e6e6"/><path d="M354.24,592.14c-6.39,6.22-16.3,4-16.3,4L324,590.63l-3.87-10.93c7.4-1.17,20.47-6.84,20.47-6.84a28.77,28.77,0,0,0,1.94,4.79A52.07,52.07,0,0,0,354.24,592.14Z" fill="#f9b499"/><path d="M342.53,577.65a64.15,64.15,0,0,1-18.54,13l-3.87-10.93c7.4-1.17,20.47-6.84,20.47-6.84A28.77,28.77,0,0,0,342.53,577.65Z" fill="#f7a48b"/><path d="M374.24,612.81c-11.77,4.2-14.45,2-14.45,2-9.25-6.56-24.21-7.06-24.21-7.06-1.17,1.85,5.38,17.31,5.38,17.31l-4.87,1.68a74.19,74.19,0,0,1-13.95-29.07C321,590,324,590.63,324,590.63l13.95,5.54s9.91,2.19,16.3-4l3.53,2.52c5.54,2.35,20,.84,20,.84,15.12-2,17.64,5.21,17.64,5.21C397.6,606.59,374.24,612.81,374.24,612.81Z" fill="#f28107"/><path d="M342.64,571.64a56.4,56.4,0,0,1-9.31,4.25,155.58,155.58,0,0,1-20.43,5.66l-26.73-52.77c-.62-1-1.26-2.07-1.93-3.19-13.05-22.08-32.69-64.71-32.69-64.71-.17-.37-.34-.75-.52-1.12-22.4-48.27-26.53-47.11-26.53-47.11-6.22,48.07-21.68,98-21.68,98l-4,71.6q-.06.35-.15.69c-4.4,18.54-31.95,7.88-31.95,7.88l-1.85-63.53c-1.84-26.72,2.36-45,2.36-45a33.26,33.26,0,0,0,1.2-3.28,76.31,76.31,0,0,0,2.66-16.38l-1.34-99.66c-.5-30,7.11-38.2,7.22-38.32h0L210,308l.8.33.42.17c29.8,12.05,36.41-4.05,36.84-5.18l0-.06c2.34,10.18,5,20.55,7.91,30.89,0,0,0,.06,0,.08,1.77,6.32,3.62,12.63,5.51,18.87l.09.29c18.52,60.88,41.67,115.44,41.67,115.44l39,88.91C347.52,567.94,342.64,571.64,342.64,571.64Z" fill="#828282"/><path d="M263.53,359.64c-7.64,13.48-11.43,78.51-12.5,100.12-22.4-48.27-26.53-47.11-26.53-47.11,1.58-15.51,9-48.56,11.19-57.86a13.22,13.22,0,0,0-1.05-9c-2.83-5.54-8.76-7.54-13.44-8.22a28.58,28.58,0,0,0-8.9.17c-31,5.4-38.85-6.28-38.85-6.28,1.19-2.29,3.41-6.77,3.48-6.91h0L210,308l.8.33.42.17c30.12,12.21,36.44-4,36.84-5.18l0-.06c.3,3.67,4.13,17.73,7.91,30.89,0,0,0,.06,0,.08,2.05,7.17,4.09,14.07,5.51,18.87l.09.29Z" opacity="0.2"/><path d="M224.5,412.65s4.05,1.9,14.21,21.71c0,0,4.5-73.46-2.84-86.07a35.73,35.73,0,0,1-.18,6.5S225.84,395.51,224.5,412.65Z" opacity="0.2"/><path d="M176.93,324.59s49.08,4.89,73.36-13.19l-2.17-8.19s-5.47,18-38.08,4.74Z" opacity="0.2"/><path d="M216.26,309.63s23.55,10.52,31.86-6.42l2.09-39.29-10.76-62h-5.71l-25.38,1,18,54.12Z" fill="#e6e6e6"/><path d="M252.84,166.38s1.07,21.57,7.12,28.8c0,0,13.61,12.27,5.54,26.55,0,0-10.75,16.14,1.52,23.87,0,0-7.5,1.65-12.74-8.92l-24.07-44.19v-8.23Z" fill="#828282"/><path d="M210.88,161.9s.34,28.07-2.52,28.07c0,0-.67,5.38,2.55,13l22-1s-1-6.65-2.71-9.51v-8.23l-7.9-22.69Z" fill="#f9b499"/><path d="M218.92,202.69s-11.9-3.81-6.86-14.06l4-6.89s3.84,4.86,14.1,6.21l0-3.69-7.9-22.69-11.43.33s.34,26.39-2.52,28.07c0,0-.84,4,2.52,13.11Z" fill="#f7a48b"/><ellipse cx="234.5" cy="160.52" rx="18.65" ry="26.51" transform="translate(-11.66 18.52) rotate(-4.41)" fill="#f9b499"/><path d="M230.21,192.49s2,6.66-3.05,9.55l6.58-.14a43.91,43.91,0,0,0-1.51-4.87A43,43,0,0,0,230.21,192.49Z" fill="#f7a48b"/><path d="M253.07,138.71a15.11,15.11,0,0,1-4.31,3.84c-7.89,4.57-16.37-2-16.37-2-.5,5.38-9.91,13.78-9.91,13.78-4,4.87-1,12.61-1,12.61a11.83,11.83,0,0,1,1,3.15c1.14,6.77-4.19,12-4.19,12a15.07,15.07,0,0,0-2.69,12.77c-7.06-8.06,0-18.65,0-18.65,3.86-7.23-4.72-9.52-4.72-9.52l-.48,13.06c-.49,10.43-2,10.24-2,10.24l-2.18.34-16.72,78.06c-7.65,3.11-11.85-2.27-11.85-2.27,6-1.68,4-9.91,4-9.91-3.53,6.21-12.1,7.56-12.1,7.56-33.44,2.52-30.25-14.62-30.25-14.62,20.5,10.08,16.8-18.49,16.8-18.49-1.34-16.64,9.45-19,9.45-19l9.55-22.14a23.81,23.81,0,0,0,9.07-20c-1.68-20.67,8.22-24.64,8.22-24.64s.69-22.25,21-28.3l.44-.13c19.94-5.83,22.92.8,22.92.8l6.22,6.55c1.57,2.22,4.31,2.51,6.46,2.32a4,4,0,0,1,4.23,3.14C255,135.38,253.07,138.71,253.07,138.71Z" fill="#828282"/><path d="M248.76,142.55c-7.89,4.57-16.37-2-16.37-2-.5,5.38-9.91,13.78-9.91,13.78-4,4.87-1,12.61-1,12.61a11.83,11.83,0,0,1,1,3.15l0,0s-10-9.7-1.23-18.12a12.14,12.14,0,0,1,1.17-1c1.56-1.19,7.2-5.93,7.49-13.16,0-.69,0-9.58,0-9.58S231.49,146.66,248.76,142.55Z" opacity="0.2"/><path d="M233.91,267.45c-.51,5.71-9.25,23.69-9.25,23.69a132.44,132.44,0,0,0-5.18,12.36c-6.13,17.06-5.91,28.15-5.91,28.15l-20,.67c-23.36,0-24.7-9.92-24.7-9.92l12.43-23.19c4.86-6.16,7-14.45,8-20.6a39.07,39.07,0,0,0-.3-13.47c-1.29-6.64-1.63-10.63-1.63-10.63-2-33.45-22.85-43.2-22.85-43.2-22-9.74-41.18-35.63-41.18-35.63-11.59-18.65,12.94-20.83,12.94-20.83l29.92-14.29.2-.17a5.21,5.21,0,0,1,8.15,2.37l5.77,16.29c.84,5.88-5.89,5-5.89,5a14.52,14.52,0,0,0-9.07,4.37,8.47,8.47,0,0,1-1.74,1.89,16.62,16.62,0,0,1-6.83,3c11.87,9.83,21.08,13.67,27.39,15,6.64,1.42,10.08.1,10.08.1l8.58,9.24,16.63,32.77Z" fill="#f28107"/><path d="M250.88,333.83a209,209,0,0,0-4.54-40.5s-5.37-24.2-3-34.12l2.18-21.34-6.21-21-2.53-12.6-2.32-9.59s17.11,5.89,19.63,18.32l7.4,38.83s.84,13.44,4.87,8.57l14.29-15s11.26,8.4,13.78,13.78a12.92,12.92,0,0,1-2.52,11.6l-21.51,20.5s-7.23,6.05-17-6.39c0,0,5.66,25.37,11.14,38.22a4.49,4.49,0,0,1-.63,4.58C262.23,329.8,258.62,332.49,250.88,333.83Z" fill="#f28107"/><path d="M253.4,284.92V234s.36,27,11.11,27.53c0,0-2,21,5.87,29.78C270.38,291.31,263.65,297.53,253.4,284.92Z" opacity="0.2"/><path d="M234.44,194.67s22.49,9.25,11.74,20c0,0,6.55-.34,5.21,12.6,0,0,1.89,28.62-8.64,42,0,0-.44-6.5.57-10l3.19-29.58-8.06-15.12Z" opacity="0.2"/><path d="M233.91,267.45c-.51,5.71-9.25,23.69-9.25,23.69a132.44,132.44,0,0,0-5.18,12.36l-.13.16c-.62-14.53-13.34-16.21-13.34-16.21l15.8-13.95c8.9-9.41-1.35-21.85-1.35-21.85l-21-23.7c-11.76-13.27-6.38-20-6.38-20-15.3-9.91,1.17-19.49,1.17-19.49l8.58,9.24,16.63,32.77Z" opacity="0.2"/><path d="M187.86,295.85s8.74,7.56,26.72,7.39c0,0-5.88,14.46-21.51,8.24C193.07,311.48,186,309.63,187.86,295.85Z" fill="#828282"/><path d="M198.63,582.92c-4.4,18.54-31.95,7.88-31.95,7.88l-1.85-63.53c-1.84-26.72,2.36-45,2.36-45a33.26,33.26,0,0,0,1.2-3.28l.27.32s-2.15,21.78,1.72,41.28a87.69,87.69,0,0,1,8.07,35A47.62,47.62,0,0,0,198.63,582.92Z" opacity="0.2"/><path d="M333.33,575.89a155.58,155.58,0,0,1-20.43,5.66l-26.73-52.77c-.62-1-1.26-2.07-1.93-3.19C289.52,532.78,313.54,564.58,333.33,575.89Z" opacity="0.2"/><path d="M195.93,619.7c-5.72,3.2-12.78,1-12.78,1-5.38-3.19-15.63-11.93-15.63-11.93l.26-17.72-.12,8.73s8.25,6.51,21.79,7.59C191,614,195.93,619.7,195.93,619.7Z" fill="#f9b499"/><path d="M189.45,607.38c-13.54-1.08-21.79-7.59-21.79-7.59l.12-8.73c12.53,4.67,20.82,2.06,21.24,1.93h0v9.58A15.64,15.64,0,0,0,189.45,607.38Z" fill="#f7a48b"/><path d="M230.38,644.91l-26.72,1c-9.75-1-12.94-5.88-12.94-5.88a59.92,59.92,0,0,0-17.65-11.43v18.32h-5.71l-3.7-20.17c-2.69-17.14,3.86-18,3.86-18s10.25,8.74,15.63,11.93c0,0,7.06,2.19,12.78-1,2,4.88,13.1,8.91,13.1,8.91,13.79,3.19,20,7.56,20,7.56C235.76,642.05,230.38,644.91,230.38,644.91Z" fill="#f28107"/><path d="M321.56,209.12a.41.41,0,0,1,.52.52,14.41,14.41,0,0,1-1.43,3.19,7.44,7.44,0,0,1-4.39,3.53,16.43,16.43,0,0,1-3.7,12.43L294.25,258.7s-2.57-4.22-11-11.35l22.8-24.1s0-13.11,7.56-13.11A58.64,58.64,0,0,0,321.56,209.12Z" fill="#f9b499"/><path d="M316.26,216.36a16.43,16.43,0,0,1-3.7,12.43s-2.24-17.58,8.09-16A7.44,7.44,0,0,1,316.26,216.36Z" fill="#f7a48b"/><path d="M184.16,188.36c-16.58,1.75-38.32-16.71-38.32-16.71,7,.76,16.15-1,17.76-1.3a16.62,16.62,0,0,1-6.83,3C168.64,183.16,177.85,187,184.16,188.36Z" opacity="0.2"/><path d="M224.53,115.7a14.09,14.09,0,0,1-6.42,4.86s-8.1,2.7-9.42,8.95a16.45,16.45,0,0,1-1.2,3.63c-1.39,2.89-4.24,7.52-8.9,9.72a12.93,12.93,0,0,1-3.65,1.1,6.84,6.84,0,0,0-3.54,1.6l-12,10.63-4.84-13.43a4.11,4.11,0,0,0-1.52-2.2l1.8-.86,11.79-5.62a9.49,9.49,0,0,0,3.7-3.15l7.28-10.51a3.7,3.7,0,0,1,.91-.94,48.62,48.62,0,0,1,13.74-7s6.89-2.69,5.21,1.18l5.81-.34A1.49,1.49,0,0,1,224.53,115.7Z" fill="#f9b499"/><line x1="203.99" y1="119.55" x2="216.93" y2="113.17" fill="#f7a48b" stroke="#f7a48b" stroke-miterlimit="10"/><line x1="207.86" y1="121.4" x2="222.82" y2="114.68" fill="#f7a48b" stroke="#f7a48b" stroke-miterlimit="10"/><path d="M198.59,142.86a12.93,12.93,0,0,1-3.65,1.1,6.84,6.84,0,0,0-3.54,1.6l-12,10.63-4.84-13.43a4.11,4.11,0,0,0-1.52-2.2l1.8-.86c1.44,2.38,5.32,6.57,14.06,4.73C188.87,144.43,197.78,139.84,198.59,142.86Z" fill="#f7a48b"/><path d="M753.09,398.24V629.67H725.75v-200a10.5,10.5,0,0,0-10.51-10.51H438.84a7,7,0,0,0-7,7V631H408.63V408.84a21.11,21.11,0,0,1,21.11-21.11H742.58A10.5,10.5,0,0,1,753.09,398.24Z" fill="#3f4347"/><path d="M546.69,419.17V631H431.87V426.14a7,7,0,0,1,7-7Z" fill="#2e3135"/><polygon points="600 342.62 426.4 342.62 420.94 218.24 604.1 218.24 600 342.62" fill="#828282"/><polygon points="593.17 227.81 593.15 228.71 592.89 238.48 590.43 333.06 438.71 333.06 431.87 227.81 593.17 227.81" fill="#e6e6e6"/><polygon points="593.15 228.71 592.89 238.48 487.91 238.74 485.12 227.81 592.98 227.81 593.15 228.71" fill="#f28107"/><circle cx="491.33" cy="233.96" r="2.05" fill="#fff" opacity="0.4"/><rect x="446.91" y="372.7" width="139.42" height="15.04" fill="#828282"/><path d="M209,189a22.21,22.21,0,0,0-9.94-2.12,9.13,9.13,0,0,0-8,5.92c-1.64,4.38-2,11.05,8.43,15,0,0-5.54,5.55-.84,10.42l23.87,30.42s10.42,12.44,9,26.5c0,0,9.34-3.3,1.94-27,0,0-7.87-24.21-18.19-38a35.25,35.25,0,0,1-6.14-13.06,25,25,0,0,1-.71-7.1A1.57,1.57,0,0,0,209,189Z" fill="#f28107"/><path d="M209,189a22.21,22.21,0,0,0-9.94-2.12,9.13,9.13,0,0,0-8,5.92c-1.64,4.38-2,11.05,8.43,15,0,0-5.54,5.55-.84,10.42l23.87,30.42s10.42,12.44,9,26.5c0,0,9.34-3.3,1.94-27,0,0-7.87-24.21-18.19-38a35.25,35.25,0,0,1-6.14-13.06,25,25,0,0,1-.71-7.1A1.57,1.57,0,0,0,209,189Z" fill="#fff" opacity="0.4"/><path d="M230.21,192.49s28.4,12.61,10.25,20.34c0,0-2,.5.84,1.85,0,0,8.24,3.19,8.07,8.57,0,0,1.68,20.5-6.05,36C243.32,259.21,238.45,207.11,230.21,192.49Z" fill="#f28107"/><path d="M230.21,192.49s28.4,12.61,10.25,20.34c0,0-2,.5.84,1.85,0,0,8.24,3.19,8.07,8.57,0,0,1.68,20.5-6.05,36C243.32,259.21,238.45,207.11,230.21,192.49Z" fill="#fff" opacity="0.4"/><path d="M488.91,291.61l-16.6-2.6.26-1.66a20.65,20.65,0,0,1,2-6.73,15.32,15.32,0,0,1,3.62-4.39,93.19,93.19,0,0,1,9.73-6.35c2.66-1.57,4.12-3.14,4.34-4.74a5,5,0,0,0-.84-4,6.12,6.12,0,0,0-4.09-2,7,7,0,0,0-5.46,1.24q-2.36,1.74-3.71,6.76l-16.63-4.74q2.32-9.21,9.14-14t19-2.87q9.54,1.47,14.77,6.36,7.11,6.62,5.71,15.58a14,14,0,0,1-3.16,6.81q-2.6,3.14-9.71,7.12c-3.3,1.88-5.45,3.47-6.44,4.75A11.64,11.64,0,0,0,488.91,291.61Zm-17.85,1.74,17.78,2.77L486.4,311.8,468.62,309Z" fill="#fff"/><path d="M531.28,315.91l-9.21-7.44.75-.92a14.6,14.6,0,0,1,3.62-3.39,11,11,0,0,1,3.76-1.39,64.18,64.18,0,0,1,8.2-.43c2.17,0,3.62-.45,4.34-1.34a3.49,3.49,0,0,0,.89-2.72,4.31,4.31,0,0,0-1.79-2.67,4.94,4.94,0,0,0-3.77-1.17q-2.05.22-4.67,2.81l-8.47-8.79a16.51,16.51,0,0,1,10.54-5.3q5.84-.5,12.64,5,5.29,4.29,6.75,9.13a11.81,11.81,0,0,1-2,11.52,9.78,9.78,0,0,1-4.33,3.06c-1.8.66-4.61,1-8.45.91a16.49,16.49,0,0,0-5.62.62A8.29,8.29,0,0,0,531.28,315.91Zm-11.51-5.27,9.87,8-7,8.71-9.88-8Z" fill="#fff"/><path d="M533.86,262.25l-4-5.45.55-.4a8.58,8.58,0,0,1,2.47-1.34,6.26,6.26,0,0,1,2.28-.22,35.68,35.68,0,0,1,4.57,1,3.11,3.11,0,0,0,2.59-.12,2,2,0,0,0,.88-1.36,2.44,2.44,0,0,0-.61-1.73,2.81,2.81,0,0,0-1.91-1.19,4.9,4.9,0,0,0-3,.87l-3.38-6.07a9.38,9.38,0,0,1,6.57-1.39q3.29.58,6.24,4.59a11,11,0,0,1,2.39,6,6.75,6.75,0,0,1-2.8,6.06,5.58,5.58,0,0,1-2.8,1.05,14.43,14.43,0,0,1-4.79-.72,9,9,0,0,0-3.18-.49A4.78,4.78,0,0,0,533.86,262.25Zm-5.57-4.57,4.27,5.83-5.15,3.77-4.27-5.83Z" fill="#fff"/><polygon points="546.69 333.06 591.91 268.03 591.09 299.49 565.76 332.99 546.69 333.06" fill="#fff" opacity="0.2"/><polygon points="504.08 333.39 579.25 227.99 593.16 227.8 519.19 333.39 504.08 333.39" fill="#fff" opacity="0.2"/><circle cx="273.23" cy="66.39" r="24.75" fill="#f28107"/><path d="M254.11,98.51a15.39,15.39,0,0,1-10.45-3.63l-.77-.66,1-.2c.06,0,6.1-1.27,10.06-5a29.75,29.75,0,1,1,19.28,7.09,30,30,0,0,1-6.38-.69A32.28,32.28,0,0,1,254.11,98.51Zm-9-3.75c7.45,5.58,18.27,1.22,21.49-.3l.16-.07.17,0a28.74,28.74,0,1,0-22.41-28A28.61,28.61,0,0,0,255,88.62l.42.35-.38.39C251.81,92.66,247.12,94.21,245.08,94.76Z" fill="#f28107"/><line x1="261.68" y1="55.97" x2="283.65" y2="77.93" fill="none" stroke="#fff" stroke-miterlimit="10"/><line x1="260.86" y1="77.04" x2="284.48" y2="56.86" fill="none" stroke="#fff" stroke-miterlimit="10"/><polygon points="721.89 333.48 721.75 334.48 721.59 335.65 721.4 337.06 720.6 342.93 720.52 343.56 719.68 349.71 719.59 350.36 716.27 374.72 716.18 375.38 714.48 387.95 679.16 387.95 678.68 384.38 678.59 383.73 678.33 381.81 678.24 381.19 676.77 370.36 676.67 369.61 673.37 345.36 673.26 344.6 672.67 340.22 671.75 333.48 721.89 333.48" fill="#828282"/><g opacity="0.2"><polygon points="721.89 333.48 721.75 334.48 721.59 335.65 721.4 337.06 720.45 337.12 719.45 337.18 704.8 338.13 703.79 338.2 672.67 340.22 671.75 333.48 721.89 333.48"/></g><path d="M726.36,333.77a349,349,0,0,1-59.08,0v-5.36h59.08Z" fill="#828282"/><path d="M712.91,265.18c-1.85,2.21-3.18,10.39-6.71,11.71-2.43.91-3.72-2.6,1-7a18.36,18.36,0,0,0,5-8.34,68,68,0,0,0-3.32-10.69c-2.72,2.51-7.07,6.07-8.31,4.36s2.69-7.69,5-10.69a18.58,18.58,0,0,0-3.52-3.92,11,11,0,0,0-7.45-2.66,9.94,9.94,0,0,0-5.66,2.07c2.43,4.79,6,12.9,3.5,14.76-2.33,1.73-5.69-5-7.8-10-3,4.58-5,10.85-5.82,16.9a10.57,10.57,0,0,0,3.32,3.59c4.59,3.3,10,10,7.31,11.45s-5.57-2.43-7.6-5.92a13.85,13.85,0,0,0-3.48-4.2c0,1.06,0,2.09,0,3.09.72,19,19.31,19,19.31,19S716.19,284.42,712.91,265.18Zm-23.4.38c-1.84,0-4.77-3.46-6.14-5.37s-.28-3.22,1-2.85h.06C686.32,257.91,691.9,265.58,689.51,265.56ZM705.73,261h0c1.32-.37,2.4.51,1.78,2.19-.81,2.21-1.89,3.08-3.54,2.26C703,264.91,703.88,261.55,705.73,261Z" fill="#f28107"/><path d="M695.58,260.41c1.63,8.33,1.1,16.93.48,25.34-.66,9-1.56,18-1.21,27a75.41,75.41,0,0,0,2,15.19.34.34,0,0,0,.66-.18c-4.41-17.86-.35-36-.22-54.11a66.42,66.42,0,0,0-1.09-13.43c-.08-.43-.73-.25-.65.18Z" fill="#828282"/><path d="M687.23,288.8c-.19,2.88,3.56,10.27,1.49,13.41-1.43,2.17-4.54.09-3.35-6.26a18.4,18.4,0,0,0-.91-9.66,68.86,68.86,0,0,0-9-6.68c-.71,3.63-2.13,9.08-4.14,8.43-2.18-.69-2.36-7.8-2.29-11.56a18.62,18.62,0,0,0-5.16-1.09,11,11,0,0,0-7.58,2.25,9.8,9.8,0,0,0-3.35,5c4.78,2.45,12.45,6.88,11.52,9.87-.85,2.76-7.53-.67-12.18-3.47.3,5.44,2.4,11.69,5.27,17.08a10.71,10.71,0,0,0,4.79.95c5.66-.05,14,2.12,12.66,4.93s-5.93,1.32-9.63-.3a13.88,13.88,0,0,0-5.29-1.34c.59.88,1.2,1.72,1.82,2.5,11.81,14.95,26.82,4,26.82,4S701.23,302.4,687.23,288.8Zm-18.68,14.1c-1.49,1.08-5.89,0-8.12-.71s-2.12-2.44-.84-2.92l0,0C661.47,298.61,670.49,301.51,668.55,302.9ZM679,289.66l0-.05c.84-1.07,2.24-1,2.73.72.64,2.26.29,3.61-1.53,3.91C679.06,294.43,677.79,291.2,679,289.66Z" fill="#f28107"/><path d="M670.39,295.14a92.78,92.78,0,0,1,12.23,13A65.78,65.78,0,0,1,689.28,320c1.34,2.93,2.61,5.89,3.92,8.83.17.4.76.06.58-.34-2.14-4.83-4.14-9.76-6.65-14.42a56.66,56.66,0,0,0-8.27-11.48c-2.52-2.76-5.23-5.35-8-7.89-.32-.29-.8.19-.48.48Z" fill="#828282"/><path d="M703.39,320.27s14.93,11.07,26.85-3.8c.62-.77,1.24-1.61,1.83-2.48a14,14,0,0,0-5.3,1.3c-3.71,1.59-8.33,3-9.63.23s7-4.93,12.69-4.84a10.83,10.83,0,0,0,4.8-.91c2.91-5.38,5-11.61,5.39-17-4.67,2.77-11.37,6.15-12.21,3.38-.9-3,6.8-7.37,11.6-9.78a9.83,9.83,0,0,0-3.32-5,11,11,0,0,0-7.56-2.3,18.53,18.53,0,0,0-5.17,1.06c0,3.75-.18,10.86-2.37,11.54-2,.63-3.39-4.82-4.08-8.46a68,68,0,0,0-9,6.62,18.44,18.44,0,0,0-1,9.65c1.15,6.36-2,8.42-3.39,6.24-2-3.16,1.75-10.53,1.59-13.41C691,305.74,703.39,320.27,703.39,320.27Zm29.2-17.39.06,0c1.28.49,1.39,2.19-.86,2.91s-6.64,1.74-8.13.66C721.73,305.07,730.78,302.23,732.59,302.88Zm-20.51-5.16c-1.82-.31-2.17-1.66-1.51-3.91.51-1.72,1.9-1.79,2.74-.71l0,0C714.5,294.7,713.22,297.92,712.08,297.72Z" fill="#f28107"/><path d="M721.4,298.22c-9,9-16.2,19.55-23.13,30.23-.24.37.35.71.58.34,6.91-10.63,14-21.08,23-30.1.31-.3-.17-.78-.48-.47Z" fill="#828282"/><path d="M726.36,328.41c0,.54-13.23,1-29.54,1s-29.54-.44-29.54-1,13.23-1,29.54-1S726.36,327.87,726.36,328.41Z" fill="#828282"/><g opacity="0.2"><path d="M726.36,328.41c0,.54-13.23,1-29.54,1s-29.54-.44-29.54-1,13.23-1,29.54-1S726.36,327.87,726.36,328.41Z"/></g><path d="M418.91,158.67l-.64-.77a18.14,18.14,0,0,0,3.59-3.78l.84.56A19.13,19.13,0,0,1,418.91,158.67Zm4.91-10.34a13.33,13.33,0,0,0-5.69-11.7l.61-.81a14.28,14.28,0,0,1,6.08,12.55Z" fill="#f28107"/><path d="M409.3,165l-10.82-.54.07-1.09a13.24,13.24,0,0,1,.84-4.44,10.2,10.2,0,0,1,2-3,58.42,58.42,0,0,1,5.82-4.71c1.6-1.18,2.42-2.29,2.48-3.33a3.16,3.16,0,0,0-.81-2.47,4,4,0,0,0-2.75-1,4.55,4.55,0,0,0-3.41,1.17q-1.38,1.26-1.92,4.57l-11-1.93a15.06,15.06,0,0,1,4.95-9.55q4.06-3.51,12-3.1c4.13.2,7.42,1.24,9.87,3.08a10.78,10.78,0,0,1,4.69,9.58,9,9,0,0,1-1.56,4.6,23.31,23.31,0,0,1-5.74,5.2,14.61,14.61,0,0,0-3.8,3.47A7.52,7.52,0,0,0,409.3,165ZM398,167.31l11.54.64L409,178.14l-11.53-.66Z" fill="#f28107"/><path d="M377.45,173.56l-7.57,3.74-.32-.76a10.55,10.55,0,0,1-1.11-3.36,7.62,7.62,0,0,1,.22-2.85,42.84,42.84,0,0,1,2.17-5.42c.64-1.41.77-2.48.4-3.17a2.51,2.51,0,0,0-1.53-1.41,3.06,3.06,0,0,0-2.25.37,3.56,3.56,0,0,0-1.89,2.08,6.14,6.14,0,0,0,.43,3.85l-8.23,2.85a11.78,11.78,0,0,1-.28-8.39q1.41-3.93,7-6.68a13.61,13.61,0,0,1,7.9-1.65,8.4,8.4,0,0,1,6.85,4.74,7,7,0,0,1,.68,3.73A17.93,17.93,0,0,1,378,167a11.7,11.7,0,0,0-1.29,3.84A5.85,5.85,0,0,0,377.45,173.56Zm-6.84,5.88,8.11-4,3.53,7.15-8.11,4Z" fill="#f28107"/><path d="M489.47,171.62H474.33v-6.83l15.14-18h7.24v18.39h3.75v6.44h-3.75v5.59h-7.24Zm0-6.44v-9.41l-8,9.41Z" fill="#f28107"/><path d="M503.05,162.14q0-8.52,3.07-11.93t9.35-3.41a13.69,13.69,0,0,1,5,.75,9.1,9.1,0,0,1,3.16,1.93,10.25,10.25,0,0,1,1.93,2.51,13.3,13.3,0,0,1,1.13,3.07,28,28,0,0,1,.83,7q0,8.13-2.75,11.91t-9.52,3.71a13.48,13.48,0,0,1-6.1-1.2,10,10,0,0,1-3.82-3.53,13.35,13.35,0,0,1-1.68-4.52A31.62,31.62,0,0,1,503.05,162.14Zm8.24,0c0,3.81.34,6.41,1,7.8a3.19,3.19,0,0,0,2.93,2.09,3,3,0,0,0,2.19-.89,5.42,5.42,0,0,0,1.36-2.8,28.07,28.07,0,0,0,.44-6c0-4-.33-6.64-1-8a3.21,3.21,0,0,0-3-2,3.08,3.08,0,0,0-3,2.09c-.6,1.38-.91,3.95-.92,7.73Z" fill="#f28107"/><path d="M530.91,162.14q0-8.52,3.07-11.93t9.35-3.41a13.69,13.69,0,0,1,5,.75,9.1,9.1,0,0,1,3.16,1.93,10.25,10.25,0,0,1,1.93,2.51,13.3,13.3,0,0,1,1.13,3.07,28.47,28.47,0,0,1,.84,7q0,8.13-2.76,11.91t-9.49,3.71a13.48,13.48,0,0,1-6.1-1.2,10,10,0,0,1-3.81-3.53,13.09,13.09,0,0,1-1.69-4.52A31.65,31.65,0,0,1,530.91,162.14Zm8.24,0c0,3.81.34,6.41,1,7.8a3.19,3.19,0,0,0,2.93,2.09,3,3,0,0,0,2.19-.89,5.56,5.56,0,0,0,1.37-2.8,29.42,29.42,0,0,0,.44-6q0-6-1-8a3.22,3.22,0,0,0-3-2,3.08,3.08,0,0,0-3,2.09c-.62,1.38-.94,3.95-.94,7.73Z" fill="#f28107"/><path d="M574,147.31h24.76v6.37h-15.5v4.76h14.38v6.1H583.29v5.89h16v6.77H574Z" fill="#828282"/><path d="M604.34,177.21v-29.9h15.4a22.24,22.24,0,0,1,6.55.74,6.86,6.86,0,0,1,3.65,2.72,8.42,8.42,0,0,1-2.1,11.73c-.16.12-.33.22-.5.33A11.27,11.27,0,0,1,624.1,164a8.56,8.56,0,0,1,2.4,1.1,8.8,8.8,0,0,1,1.48,1.57,10.51,10.51,0,0,1,1.3,1.86l4.47,8.66H623.31l-4.94-9.14a6.81,6.81,0,0,0-1.67-2.3,3.87,3.87,0,0,0-2.26-.69h-.82v12.13Zm9.28-17.78h3.9A15.35,15.35,0,0,0,620,159a2.45,2.45,0,0,0,1.5-.94,3,3,0,0,0-.33-4,5.64,5.64,0,0,0-3.45-.77h-4.06Z" fill="#828282"/><path d="M636.83,177.21v-29.9h15.4a22.24,22.24,0,0,1,6.55.74,6.86,6.86,0,0,1,3.65,2.72,8.45,8.45,0,0,1-2.12,11.76l-.47.3a11.33,11.33,0,0,1-3.25,1.19,6.15,6.15,0,0,1,3.88,2.67,10.51,10.51,0,0,1,1.3,1.86l4.47,8.66H655.8l-4.94-9.14a6.81,6.81,0,0,0-1.67-2.3,3.87,3.87,0,0,0-2.26-.69h-.79v12.13Zm9.31-17.78H650a15.35,15.35,0,0,0,2.44-.41,2.45,2.45,0,0,0,1.5-.94,3,3,0,0,0-.33-4,5.48,5.48,0,0,0-3.45-.77h-4.06Z" fill="#828282"/><path d="M667.32,162.28q0-7.32,4.08-11.4t11.36-4.08q7.47,0,11.51,4t4,11.23a18.31,18.31,0,0,1-1.73,8.65,12.54,12.54,0,0,1-5.1,5.23,17,17,0,0,1-8.3,1.77,19.44,19.44,0,0,1-8.37-1.61,12.67,12.67,0,0,1-5.38-5.1A17,17,0,0,1,667.32,162.28Zm9.24,0c0,3,.57,5.19,1.69,6.51a6.36,6.36,0,0,0,9,.2c.07-.07.14-.13.2-.2q1.64-1.95,1.64-7,0-4.22-1.71-6.17a5.79,5.79,0,0,0-4.62-1.94,5.6,5.6,0,0,0-4.48,2c-1.12,1.41-1.7,3.6-1.7,6.64Z" fill="#828282"/><path d="M703.41,177.21v-29.9H718.8a22.24,22.24,0,0,1,6.55.74,6.81,6.81,0,0,1,3.65,2.72,8.15,8.15,0,0,1,1.39,4.84,8,8,0,0,1-4,7.22,11.27,11.27,0,0,1-3.24,1.19,8.56,8.56,0,0,1,2.4,1.1,9.18,9.18,0,0,1,1.48,1.57,10.46,10.46,0,0,1,1.29,1.86l4.48,8.66H722.38l-4.94-9.14a6.81,6.81,0,0,0-1.67-2.3,3.92,3.92,0,0,0-2.27-.69h-.81v12.13Zm9.28-17.78h3.89A15.47,15.47,0,0,0,719,159a2.45,2.45,0,0,0,1.5-.94,3,3,0,0,0-.34-4,5.48,5.48,0,0,0-3.45-.77h-4Z" fill="#828282"/><path d="M515.43,130.68V108.42h8.36a10.18,10.18,0,0,1,4.09.68,5.17,5.17,0,0,1,2.42,2.08,5.45,5.45,0,0,1,.88,2.94,5,5,0,0,1-.78,2.69,5.67,5.67,0,0,1-2.34,2,5.78,5.78,0,0,1,3.11,2,5.37,5.37,0,0,1,1.08,3.37,6.42,6.42,0,0,1-.66,2.91,5.7,5.7,0,0,1-1.63,2.08,6.82,6.82,0,0,1-2.44,1.1,14.89,14.89,0,0,1-3.59.37Zm3-12.92h4.82a10.59,10.59,0,0,0,2.81-.26,3.12,3.12,0,0,0,1.69-1.1,3.17,3.17,0,0,0,.57-2,3.44,3.44,0,0,0-.53-2,2.57,2.57,0,0,0-1.52-1.16,12.46,12.46,0,0,0-3.39-.31h-4.45Zm0,10.29H524a14.81,14.81,0,0,0,2-.1,4.88,4.88,0,0,0,1.7-.61,3.28,3.28,0,0,0,1.13-1.24,4,4,0,0,0,.44-1.88,3.61,3.61,0,0,0-.64-2.16,3.19,3.19,0,0,0-1.77-1.29,10.86,10.86,0,0,0-3.26-.38h-5.15Z" fill="#828282"/><path d="M546.5,128.68a10.61,10.61,0,0,1-2.93,1.83,8.74,8.74,0,0,1-3,.53,5.87,5.87,0,0,1-4.08-1.3,4.29,4.29,0,0,1-1.43-3.32,4.52,4.52,0,0,1,1.93-3.74,6.22,6.22,0,0,1,2-.9,18.13,18.13,0,0,1,2.43-.41,25.2,25.2,0,0,0,4.88-.94v-.72a3,3,0,0,0-.77-2.35,4.5,4.5,0,0,0-3.12-.93,4.83,4.83,0,0,0-2.85.68,4.16,4.16,0,0,0-1.42,2.42l-2.67-.36a6.59,6.59,0,0,1,1.2-2.78,5.25,5.25,0,0,1,2.47-1.62,10.67,10.67,0,0,1,3.67-.57,9.64,9.64,0,0,1,3.33.48,4.38,4.38,0,0,1,1.9,1.23,4.27,4.27,0,0,1,.85,1.86,15.1,15.1,0,0,1,.14,2.52v3.65a38.76,38.76,0,0,0,.17,4.82,6.43,6.43,0,0,0,.69,1.94H547A5.94,5.94,0,0,1,546.5,128.68Zm-.23-6.11a20,20,0,0,1-4.47,1,10,10,0,0,0-2.39.54,2.4,2.4,0,0,0-1.08.89,2.43,2.43,0,0,0,.45,3.13,3.66,3.66,0,0,0,2.43.73,5.74,5.74,0,0,0,2.81-.7,4.29,4.29,0,0,0,1.81-1.89,6.61,6.61,0,0,0,.44-2.74Z" fill="#828282"/><path d="M563.75,130.68v-2a5,5,0,0,1-4.52,2.4,6.37,6.37,0,0,1-3.54-1.07,6.92,6.92,0,0,1-2.51-3,10.2,10.2,0,0,1-.89-4.38,11.54,11.54,0,0,1,.8-4.39,6.32,6.32,0,0,1,2.42-3,6.47,6.47,0,0,1,3.6-1,5.33,5.33,0,0,1,2.6.61,5.45,5.45,0,0,1,1.86,1.61v-8h2.72v22.22Zm-8.61-8a7,7,0,0,0,1.31,4.63,3.93,3.93,0,0,0,3.08,1.54,3.88,3.88,0,0,0,3.05-1.47,6.74,6.74,0,0,0,1.25-4.47,7.64,7.64,0,0,0-1.27-4.87,3.9,3.9,0,0,0-3.15-1.55,3.78,3.78,0,0,0-3,1.49A7.38,7.38,0,0,0,555.14,122.68Z" fill="#828282"/><path d="M579.63,130.68V108.42h9.88a12.85,12.85,0,0,1,4.53.6,5,5,0,0,1,2.48,2.12,6.31,6.31,0,0,1,.93,3.36,5.58,5.58,0,0,1-1.54,4,7.78,7.78,0,0,1-4.77,2.06,7.38,7.38,0,0,1,1.81,1.12,15,15,0,0,1,2.45,3l3.87,6h-3.71l-2.95-4.63c-.86-1.34-1.57-2.36-2.12-3.07a6.43,6.43,0,0,0-1.5-1.49,4.2,4.2,0,0,0-1.35-.6,8.17,8.17,0,0,0-1.64-.1h-3.42v9.89Zm3-12.45h6.34a9.64,9.64,0,0,0,3.16-.41,3.51,3.51,0,0,0,1.74-1.34,3.65,3.65,0,0,0,.59-2,3.28,3.28,0,0,0-1.15-2.6,5.31,5.31,0,0,0-3.62-1h-7.06Z" fill="#828282"/><path d="M612.77,125.51l2.83.34a6.87,6.87,0,0,1-2.46,3.83,8.4,8.4,0,0,1-10.24-.81,8.6,8.6,0,0,1-2.07-6.12,8.92,8.92,0,0,1,2.1-6.32,7,7,0,0,1,5.44-2.25,6.87,6.87,0,0,1,5.29,2.2,8.73,8.73,0,0,1,2.05,6.2v.73h-12a6.28,6.28,0,0,0,1.43,4.09,4.48,4.48,0,0,0,3.37,1.42,4.14,4.14,0,0,0,2.57-.79A5.28,5.28,0,0,0,612.77,125.51Zm-9-4.43h9a5.44,5.44,0,0,0-1-3,4.17,4.17,0,0,0-3.39-1.58,4.32,4.32,0,0,0-3.17,1.23,5,5,0,0,0-1.42,3.4Z" fill="#828282"/><path d="M629.32,136.89V129a5,5,0,0,1-1.78,1.49,5.29,5.29,0,0,1-2.44.59,6.47,6.47,0,0,1-5-2.3,9,9,0,0,1-2.08-6.29,10.86,10.86,0,0,1,.85-4.36,6.32,6.32,0,0,1,2.45-2.93,6.51,6.51,0,0,1,3.51-1,5.42,5.42,0,0,1,4.72,2.49v-2.12h2.46v22.33Zm-8.43-14.3a7.2,7.2,0,0,0,1.3,4.67,4,4,0,0,0,3.14,1.56,3.85,3.85,0,0,0,3-1.48,6.75,6.75,0,0,0,1.27-4.51,7.59,7.59,0,0,0-1.33-4.85,4,4,0,0,0-3.13-1.63,3.76,3.76,0,0,0-3,1.52A7.38,7.38,0,0,0,620.89,122.59Z" fill="#828282"/><path d="M646.92,130.68v-2.35a5.88,5.88,0,0,1-5.12,2.74,6.62,6.62,0,0,1-2.67-.55,4.43,4.43,0,0,1-1.83-1.37,5.22,5.22,0,0,1-.85-2,14.69,14.69,0,0,1-.17-2.56v-10H639v9a16.49,16.49,0,0,0,.17,2.89,2.84,2.84,0,0,0,1.09,1.7,3.47,3.47,0,0,0,2.07.61,4.58,4.58,0,0,0,2.31-.63,3.51,3.51,0,0,0,1.53-1.72,8.45,8.45,0,0,0,.45-3.15v-8.73h2.73v16.12Z" fill="#828282"/><path d="M664.71,125.51l2.83.34a6.9,6.9,0,0,1-2.48,3.83,8.4,8.4,0,0,1-10.24-.81,8.6,8.6,0,0,1-2.07-6.12,9,9,0,0,1,2.09-6.32,7.08,7.08,0,0,1,5.45-2.25,6.87,6.87,0,0,1,5.29,2.2,8.73,8.73,0,0,1,2,6.2v.73h-12a6.21,6.21,0,0,0,1.51,4.07,4.48,4.48,0,0,0,3.37,1.42,4.14,4.14,0,0,0,2.57-.79A5.3,5.3,0,0,0,664.71,125.51Zm-9-4.43h9a5.44,5.44,0,0,0-1-3,4.17,4.17,0,0,0-3.39-1.58,4.34,4.34,0,0,0-3.18,1.23,5,5,0,0,0-1.41,3.4Z" fill="#828282"/><path d="M669.88,125.89l2.7-.43a3.82,3.82,0,0,0,1.27,2.49,4.47,4.47,0,0,0,2.91.87,4.34,4.34,0,0,0,2.8-.77,2.25,2.25,0,0,0,.91-1.8,1.66,1.66,0,0,0-.8-1.46,12,12,0,0,0-2.8-.93,25.53,25.53,0,0,1-4.17-1.31,4,4,0,0,1-2.37-3.7,4.21,4.21,0,0,1,.5-2,4.4,4.4,0,0,1,1.31-1.53,5.85,5.85,0,0,1,1.74-.8,8.26,8.26,0,0,1,2.37-.32,9.2,9.2,0,0,1,3.33.54,4.37,4.37,0,0,1,2.12,1.49,5.69,5.69,0,0,1,1,2.5l-2.68.36a2.88,2.88,0,0,0-1.06-2,3.81,3.81,0,0,0-2.47-.69,4.39,4.39,0,0,0-2.69.62,1.85,1.85,0,0,0-.8,1.46,1.58,1.58,0,0,0,.33,1,2.5,2.5,0,0,0,1,.73c.27.1,1.08.33,2.42.69a33.37,33.37,0,0,1,4.05,1.27,4.1,4.1,0,0,1,1.8,1.44,4,4,0,0,1,.65,2.34,4.59,4.59,0,0,1-.79,2.58,5.28,5.28,0,0,1-2.37,1.88,8.41,8.41,0,0,1-3.4.66,7.65,7.65,0,0,1-4.8-1.31A6.05,6.05,0,0,1,669.88,125.89Z" fill="#828282"/><path d="M692.51,128.26l.4,2.41a10.28,10.28,0,0,1-2.07.25,4.63,4.63,0,0,1-2.31-.48,2.71,2.71,0,0,1-1.16-1.23A10.36,10.36,0,0,1,687,126v-9.3h-2v-2.12h2v-4l2.72-1.64v5.64h2.75v2.12h-2.75v9.44a5.06,5.06,0,0,0,.14,1.5,1.3,1.3,0,0,0,.47.54,1.91,1.91,0,0,0,.94.19Q691.91,128.34,692.51,128.26Z" fill="#828282"/></svg>