 <!DOCTYPE svg PUBLIC "-//W3C//DTD SVG 1.1//EN" "http://www.w3.org/Graphics/SVG/1.1/DTD/svg11.dtd">
<svg xmlns="http://www.w3.org/2000/svg" xmlns:xlink="http://www.w3.org/1999/xlink" width="865.76" height="682.89" viewBox="0 0 865.76 682.89">
<defs>
<clipPath id="a">
<circle cx="603.13" cy="478.58" r="79.99" fill="#fff"/>
</clipPath>
<clipPath id="b">
<circle cx="262.64" cy="336.19" r="79.99" fill="#fff"/>
</clipPath>
<clipPath id="c">
<path d="M276.27,557.28s8.83,5.15,13.23-2.92l32.31,17.15-50.32-.3Z" fill="#f59a24" data-primary="true"/>
</clipPath>
<clipPath id="d">
<path d="M245.82,557.28s-8.82,5.15-13.23-2.92l-32.31,17.15,50.32-.3Z" fill="#f59a24" data-primary="true"/>
</clipPath>
<style xmlns="http://www.w3.org/1999/xhtml">*, ::after, ::before { box-sizing: border-box; }
img, svg { vertical-align: middle; }
</style>
<style xmlns="http://www.w3.org/1999/xhtml">*, body, html { -webkit-font-smoothing: antialiased; }
img, svg { max-width: 100%; }
</style>
</defs>
<rect x="10.73" y="601.78" width="844.31" height="0.42" fill="#ebebeb"/>
<rect x="163.48" y="617.86" width="42" height="0.42" fill="#ebebeb"/>
<rect x="267.96" y="613.28" width="46.44" height="0.42" fill="#ebebeb"/>
<rect x="91.22" y="633.54" width="98.13" height="0.42" fill="#ebebeb"/>
<rect x="733.96" y="630.71" width="36.47" height="0.42" fill="#ebebeb"/>
<rect x="373.43" y="616.54" width="47.16" height="0.42" fill="#ebebeb"/>
<rect x="518.44" y="623.58" width="118.57" height="0.42" fill="#ebebeb"/>
<path d="M410.93,526.47h-326a9.65,9.65,0,0,1-9.63-9.64V58.49a9.65,9.65,0,0,1,9.63-9.56H410.93a9.63,9.63,0,0,1,9.64,9.64h0V516.83A9.64,9.64,0,0,1,410.93,526.47Zm-326-477.2a9.21,9.21,0,0,0-9.21,9.22V516.83a9.23,9.23,0,0,0,9.21,9.22H410.93a9.24,9.24,0,0,0,9.22-9.22V58.49a9.23,9.23,0,0,0-9.22-9.22Z" fill="#ebebeb"/>
<path d="M776.19,526.47H450.12a9.66,9.66,0,0,1-9.64-9.64V58.49a9.66,9.66,0,0,1,9.64-9.56H776.19a9.64,9.64,0,0,1,9.61,9.56V516.83A9.64,9.64,0,0,1,776.19,526.47ZM450.12,49.27a9.23,9.23,0,0,0-9.22,9.22V516.83a9.24,9.24,0,0,0,9.22,9.22H776.19a9.24,9.24,0,0,0,9.22-9.22V58.49a9.23,9.23,0,0,0-9.22-9.22Z" fill="#ebebeb"/>
<rect x="49.99" y="65.17" width="517.34" height="329.77" rx="14.52" fill="#ebebeb"/>
<rect x="49.99" y="81.86" width="517.34" height="265.82" fill="#fafafa"/>
<path d="M401.25,182.56a12.46,12.46,0,0,1,12.42-12.41H800.36a12.45,12.45,0,0,1,12.41,12.41v40H401.25Z" fill="#e6e6e6"/>
<circle cx="501.63" cy="196.34" r="9.39" fill="#fff"/>
<circle cx="468.36" cy="196.34" r="9.39" fill="#fff"/>
<circle cx="435.11" cy="196.34" r="9.39" fill="#fff"/>
<path d="M800.31,437.65H413.61a12.45,12.45,0,0,1-12.41-12.41V222.6H812.72V425.24A12.45,12.45,0,0,1,800.31,437.65Z" fill="#f5f5f5"/>
<path d="M346,251.68a12.45,12.45,0,0,1,12.41-12.41h386.7a12.45,12.45,0,0,1,12.41,12.41v39.95H346Z" fill="#f0f0f0"/>
<circle cx="446.36" cy="265.46" r="9.39" fill="#e6e6e6"/>
<circle cx="413.09" cy="265.46" r="9.39" fill="#e6e6e6"/>
<circle cx="379.84" cy="265.46" r="9.39" fill="#e6e6e6"/>
<path d="M745,506.76H358.35a12.43,12.43,0,0,1-12.41-12.41V291.72H757.45V494.35A12.44,12.44,0,0,1,745,506.76Z" fill="#fafafa"/>
<path d="M290.73,320.79a12.46,12.46,0,0,1,12.42-12.41H689.84a12.45,12.45,0,0,1,12.41,12.41v40H290.73Z" fill="#fafafa"/>
<circle cx="391.09" cy="334.57" r="9.39" fill="#f0f0f0"/>
<circle cx="357.82" cy="334.57" r="9.39" fill="#f0f0f0"/>
<circle cx="324.57" cy="334.57" r="9.39" fill="#f0f0f0"/>
<path d="M689.77,575.88H303.08a12.45,12.45,0,0,1-12.41-12.41V360.83H702.18V563.47A12.45,12.45,0,0,1,689.77,575.88Z" fill="#e6e6e6"/>
<rect x="318.61" y="95.36" width="14.91" height="1.69" fill="#f59a24" data-primary="true"/>
<rect x="264.31" y="95.36" width="36.59" height="1.69" fill="#f59a24" data-primary="true"/>
<path d="M163.26,101.27H702.5a20.28,20.28,0,0,1,20.27,20.27V587.12H143V121.54A20.27,20.27,0,0,1,163.26,101.27Z" fill="#f59a24" data-primary="true"/>
<rect x="143" y="131.67" width="579.75" height="447.58" fill="#fff" opacity="0.8" style="isolation:isolate"/>
<rect x="143" y="131.67" width="579.75" height="98.4" fill="#f59a24" opacity="0.4" data-primary="true"/>
<rect x="686.6" y="141.08" width="24.2" height="24.2" fill="#f59a24" opacity="0.4" data-primary="true"/>
<rect x="650.7" y="141.08" width="24.2" height="24.2" fill="#f59a24" opacity="0.4" data-primary="true"/>
<rect x="614.8" y="141.08" width="24.2" height="24.2" fill="#f59a24" opacity="0.4" data-primary="true"/>
<rect x="228.49" y="563.11" width="24.2" height="2.43" fill="#f59a24" opacity="0.4" data-primary="true"/>
<rect x="192.59" y="563.11" width="24.2" height="2.43" fill="#f59a24" opacity="0.4" data-primary="true"/>
<rect x="156.69" y="563.11" width="24.2" height="2.43" fill="#f59a24" opacity="0.4" data-primary="true"/>
<path d="M375,187.73h-7.38l-1,3.48H359.9l7.9-21.06h7.11l7.9,21.06h-6.75Zm-1.36-4.54-2.31-7.62L369,183.16Z" fill="#fff"/>
<path d="M384.52,170.15h5.91v7.3a5.68,5.68,0,0,1,2-1.37,6.3,6.3,0,0,1,2.46-.47,6,6,0,0,1,4.61,2,8.27,8.27,0,0,1,1.82,5.76,10.68,10.68,0,0,1-.82,4.39,6.4,6.4,0,0,1-2.32,2.85,5.94,5.94,0,0,1-3.25.93,6.12,6.12,0,0,1-2.82-.66A7.08,7.08,0,0,1,390,189v2.26h-5.47Zm5.86,13.39a4.52,4.52,0,0,0,.74,2.86,2.4,2.4,0,0,0,1.88.88,2.18,2.18,0,0,0,1.69-.88,4.63,4.63,0,0,0,.7-2.92,4.14,4.14,0,0,0-.69-2.65A2.15,2.15,0,0,0,393,180a2.39,2.39,0,0,0-1.94.88A4,4,0,0,0,390.38,183.54Z" fill="#fff"/>
<path d="M403.38,183.63a7.67,7.67,0,0,1,2.37-5.76,8.82,8.82,0,0,1,6.36-2.3,8.73,8.73,0,0,1,6.91,2.67,8.29,8.29,0,0,1-.44,11,8.88,8.88,0,0,1-6.47,2.24,9.12,9.12,0,0,1-5.94-1.85A7.51,7.51,0,0,1,403.38,183.63Zm5.86,0a4.64,4.64,0,0,0,.83,3,2.69,2.69,0,0,0,4.15,0,4.71,4.71,0,0,0,.81-3.09,4.49,4.49,0,0,0-.72-2.92,2.58,2.58,0,0,0-2-1,2.61,2.61,0,0,0-2.11,1,4.54,4.54,0,0,0-.93,3Z" fill="#fff"/>
<path d="M439.79,191.21h-5.46v-2.47a7.87,7.87,0,0,1-2.46,2.17,6.46,6.46,0,0,1-3.06.64,4.94,4.94,0,0,1-3.78-1.44,6.26,6.26,0,0,1-1.37-4.44V176h5.84v8.45a3.09,3.09,0,0,0,.53,2,1.88,1.88,0,0,0,1.5.61,2.17,2.17,0,0,0,1.69-.81,4.59,4.59,0,0,0,.68-2.89V176h5.84Z" fill="#fff"/>
<path d="M450.39,170.15V176h3.21v4.27h-3.21v5.48a2.9,2.9,0,0,0,.19,1.3,1.05,1.05,0,0,0,1,.47,6.21,6.21,0,0,0,1.81-.37l.44,4a18.45,18.45,0,0,1-4.05.48,7.2,7.2,0,0,1-3.21-.56,3.42,3.42,0,0,1-1.54-1.69,10.1,10.1,0,0,1-.49-3.7V180.3h-2.16V176h2.16v-2.8Z" fill="#fff"/>
<path d="M480.28,170.15h6.49V182.7a10.62,10.62,0,0,1-.58,3.53,7.59,7.59,0,0,1-4.42,4.58,13.57,13.57,0,0,1-4.56.69,29.36,29.36,0,0,1-3.38-.22,8.63,8.63,0,0,1-3-.85,7.34,7.34,0,0,1-2.25-1.82,6.67,6.67,0,0,1-1.38-2.41,12.41,12.41,0,0,1-.59-3.57V170.09h6.48v12.85a3.72,3.72,0,0,0,.95,2.68,3.55,3.55,0,0,0,2.65,1,3.46,3.46,0,0,0,2.63-.94,3.6,3.6,0,0,0,1-2.7Z" fill="#fff"/>
<path d="M489.65,187l5.81-.54a2.84,2.84,0,0,0,1,1.47,3,3,0,0,0,1.69.46,2.89,2.89,0,0,0,1.82-.51,1.11,1.11,0,0,0,.51-.93,1.1,1.1,0,0,0-.66-1,12.86,12.86,0,0,0-2.52-.61,24.6,24.6,0,0,1-4.22-1,4.39,4.39,0,0,1-2-1.52,3.91,3.91,0,0,1-.83-2.46,4.07,4.07,0,0,1,.88-2.58,5.39,5.39,0,0,1,2.41-1.69,12.8,12.8,0,0,1,4.12-.54,14.46,14.46,0,0,1,4,.42,5.27,5.27,0,0,1,2.16,1.3,6.7,6.7,0,0,1,1.45,2.36l-5.55.54a1.88,1.88,0,0,0-.71-1.08,2.87,2.87,0,0,0-1.69-.45,2.36,2.36,0,0,0-1.44.35,1.06,1.06,0,0,0-.45.86.92.92,0,0,0,.57.85,9.33,9.33,0,0,0,2.5.5,17,17,0,0,1,4.34.93,4.85,4.85,0,0,1,2.18,1.69,4.13,4.13,0,0,1,.74,2.4,4.82,4.82,0,0,1-.79,2.57,5.49,5.49,0,0,1-2.52,2,12.16,12.16,0,0,1-4.67.72,11.05,11.05,0,0,1-5.95-1.18A5.38,5.38,0,0,1,489.65,187Z" fill="#fff"/>
<circle cx="262.64" cy="336.19" r="84.43" fill="#f59a24" data-primary="true"/>
<circle cx="603.13" cy="478.58" r="84.43" fill="#f59a24" data-primary="true"/>
<path d="M595.82,328.12H374.1a7.33,7.33,0,0,1-7.33-7.33h0a7.32,7.32,0,0,1,7.31-7.31H595.82a7.32,7.32,0,0,1,7.31,7.31h0a7.31,7.31,0,0,1-7.3,7.33Z" fill="#fff"/>
<path d="M544.33,358.91H374.1a7.31,7.31,0,0,1-7.33-7.3v0h0a7.33,7.33,0,0,1,7.33-7.32H544.33a7.33,7.33,0,0,1,7.33,7.32h0a7.31,7.31,0,0,1-7.31,7.32Z" fill="#fff"/>
<path d="M407.08,470.51h84.58a7.33,7.33,0,0,0,7.33-7.33h0a7.31,7.31,0,0,0-7.31-7.31h-84.6a7.31,7.31,0,0,0-7.31,7.31h0a7.31,7.31,0,0,0,7.29,7.33Z" fill="#fff"/>
<path d="M313.09,470.51h58.36a7.31,7.31,0,0,0,7.31-7.31v0h0a7.31,7.31,0,0,0-7.31-7.31H313.09a7.31,7.31,0,0,0-7.31,7.31h0a7.31,7.31,0,0,0,7.29,7.33Z" fill="#fff"/>
<path d="M270,501.29H491.66A7.31,7.31,0,0,0,499,494v0h0a7.33,7.33,0,0,0-7.33-7.33H270a7.31,7.31,0,0,0-7.31,7.31v0h0A7.31,7.31,0,0,0,270,501.29Z" fill="#fff"/>
<path d="M179.3,116.47a7,7,0,1,1-7-7h0A7,7,0,0,1,179.3,116.47Z" fill="#fff"/>
<circle cx="196.21" cy="116.47" r="7.04" fill="#fff"/>
<circle cx="220.13" cy="116.47" r="7.04" transform="translate(69.9 315.11) rotate(-80.78)" fill="#fff"/>
<circle cx="603.13" cy="478.58" r="79.99" fill="#fff"/>
<g clip-path="url(#a)">
<polygon points="631.18 717.3 629.95 680.55 641.67 681.33 641.67 722.35 631.18 717.3" fill="#f9b499"/>
<polygon points="575.22 717.3 584.48 680.55 572.76 681.33 563.72 723.19 575.22 717.3" fill="#f9b499"/>
<path d="M635.29,514.24s16,22.92,15.57,48-5.67,143.95-5.67,143.95H626.14l-6-155.35-2.51-.15L583.19,706.24l-17.77-1.89,20.66-140.67a114.27,114.27,0,0,1,7.35-26.35c3-7.21,7.13-15.43,12.29-21.79Z" fill="#404040" data-secondary="true"/>
<g opacity="0.2">
<path d="M611.92,551.45a.46.46,0,0,1-.07-.91L624,548.42a.46.46,0,1,1,.16.9L612,551.44Z"/>
</g>
<line x1="602.26" y1="529.32" x2="596.39" y2="546.22" fill="none" stroke="#000" stroke-linecap="round" stroke-linejoin="round" stroke-width="0.95" opacity="0.2"/>
<path d="M593.34,417.79s-1.33,13.35-16.48,24.09c-16.14,11.45-4.11,43.14,25.54,41.67,32.21-1.61,45.57-43,24.56-74.42Z" fill="#404040" data-secondary="true"/>
<path d="M615.93,457.16l-19.52,5.49c-5.64,1.58-10.15,7.56-8.45,13.16l17.58,39.78,29.75-1.35,10.45-43.1c.9-5.85-5.17-11.17-11.06-11.84Z" fill="#f59a24" data-primary="true"/>
<path d="M596.41,462.65l19.52-5.49,18.75,2.14-.39.32a32.78,32.78,0,0,1-37.88,3Z" fill="#f9b499"/>
<path d="M659.76,510.46l-22.22,19.73,3.89,6.71,25.66-15.64a10.32,10.32,0,0,0,4.2-12.46c-.09-.22-.19-.44-.29-.66l-3-6.2Z" fill="#f9b499"/>
<path d="M652.91,471.47l18.5,31.63a4.23,4.23,0,0,1-2.6,5.58l-8.92,3a3.67,3.67,0,0,1-3.83-1c-3.28-3.49-17.7-14.49-17.24-27.92l-5.12-9.17,1-14.29C644.24,460.45,651.14,467.11,652.91,471.47Z" fill="#f59a24" data-primary="true"/>
<g opacity="0.2">
<path d="M640.83,492.66h-.13a.44.44,0,0,1-.28-.54l4.13-13.6a.43.43,0,0,1,.83.25l-4.14,13.6A.42.42,0,0,1,640.83,492.66Z"/>
</g>
<path d="M645,531.15c-.49.43-3.39,13.34-3.39,13.34l-4-14.3Z" fill="#f9b499"/>
<line x1="636.03" y1="528.52" x2="641.09" y2="546.31" fill="none" stroke="#000" stroke-linecap="round" stroke-linejoin="round" stroke-width="0.95" opacity="0.2"/>
<path d="M581.31,475.58l-14.75,33.54a4.24,4.24,0,0,0,3.23,5.25l7,1.57c1.4.29,2.27,3.62,3.13,2.48,2.86-3.85,18.73-19.94,16.74-33.23l4-9.7-4.24-12.84C587.05,464.89,582.58,471.05,581.31,475.58Z" fill="#f59a24" data-primary="true"/>
<g opacity="0.2">
<path d="M595.7,495.26a.44.44,0,0,1-.4-.26l-5.66-13a.43.43,0,1,1,.79-.35l5.66,13a.43.43,0,0,1-.22.57A.59.59,0,0,1,595.7,495.26Z"/>
</g>
<path d="M547.07,473.13,540.14,476l27.91,39.92a7.72,7.72,0,0,0,11.82,2.53h0a7.73,7.73,0,0,0,1.27-10.59Z" fill="#f9b499"/>
<path d="M547.38,475.14l1.41-2.1a7.7,7.7,0,0,0,1.25-5.23l-.63-5.13s-.28-2.71-5.4-.9-5.42,1.9-5,3.45c0,0,1.44,2,4.92,1.66Z" fill="#f9b499"/>
<path d="M540.89,477.35s-5.82-1.76-8-10.81a3.12,3.12,0,0,1,.8-2.92c1.16-1.17,4.56-4.25,7-3.27l4.67,3.92,2.1,10.87Z" fill="#f9b499"/>
<path d="M545.7,462.52l-.27-15.3a1.66,1.66,0,0,0-1.68-1.63h0a1.66,1.66,0,0,0-1.66,1.64l-.16,11.65-1.18.5-6.68-10.31a1.52,1.52,0,0,0-2.15-.41h0a1.53,1.53,0,0,0-.47,1.93L539,465.23Z" fill="#f9b499"/>
<path d="M545.67,461.31s-7.29.86-6.69,3.92c0,0,.34,2.31,4.92,1.66a4.33,4.33,0,0,0-2.07,4.57" fill="none" stroke="#f7a48b" stroke-miterlimit="10"/>
<circle cx="597.87" cy="433.27" r="5.36" transform="translate(-115.22 624.77) rotate(-50.96)" fill="#f9b499"/>
<path d="M594.77,432.77s2-1.21,4.38,2.31" fill="none" stroke="#f7a48b" stroke-linecap="round" stroke-linejoin="round"/>
<path d="M622.72,431.17a5.36,5.36,0,1,0,4.9-5.8A5.37,5.37,0,0,0,622.72,431.17Z" fill="#f9b499"/>
<path d="M631,429.63s-2.24-.8-3.84,3.11" fill="none" stroke="#f7a48b" stroke-linecap="round" stroke-linejoin="round"/>
<ellipse cx="611.72" cy="419.01" rx="18.45" ry="17.22" transform="translate(-33.08 52.95) rotate(-4.83)" fill="#404040" data-secondary="true"/>
<path d="M619,442.23a13,13,0,0,1-4.2,3,5.56,5.56,0,0,1-4.28-.74l-2.62-1.64.5,17.68.29.27c3.91,3.54,9.07,3.16,12.36-.92l.48-.59Z" fill="#f9b499"/>
<path d="M606.07,440.68s3.83,10,9.12,9.48c4.34-.45,4.74-10.14,4.74-10.14Z" fill="#f7a48b"/>
<path d="M626.55,420.78a61.44,61.44,0,0,1-.44,14.46c-.53,3.54-2.69,6.18-5.87,8.43l-.57.41a12.14,12.14,0,0,1-11.73,1.17h0c-3.81-1.68-6.59-4.09-7.7-7.74a89.87,89.87,0,0,1-2.86-14.12s-2.54-15.54,13.22-16.66S626.55,420.78,626.55,420.78Z" fill="#f9b499"/>
<path d="M626.25,417.23s-23.09,2.82-23.26-10.85C603,406.38,622.69,399,626.25,417.23Z" fill="#404040" data-secondary="true"/>
<path d="M596.72,419.73s7.86-4.09,7.15-12.43C603.87,407.3,595.61,409,596.72,419.73Z" fill="#404040" data-secondary="true"/>
</g>
<circle cx="262.64" cy="336.19" r="79.99" fill="#fff"/>
<g clip-path="url(#b)">
<path d="M261.73,274s7.34-3.27,9.94,2.91c2.5,5.95-7.44,11.62-7.44,11.62Z" fill="#404040" data-secondary="true"/>
<path d="M248,298.62a5,5,0,1,1-5.11-4.84A5,5,0,0,1,248,298.62Z" fill="#f9b499"/>
<path d="M240.21,298.06s2-1,3.87,2.47" fill="none" stroke="#f7a48b" stroke-linecap="round" stroke-linejoin="round"/>
<circle cx="271.16" cy="298.76" r="4.98" fill="#f9b499"/>
<path d="M274,298s-2-.91-3.8,2.58" fill="none" stroke="#f7a48b" stroke-linecap="round" stroke-linejoin="round"/>
<path d="M263.48,310.23a16.76,16.76,0,0,1-5.36,2.47,8.17,8.17,0,0,1-5.07-1l-3-1.72-1.22,16.39.33.27a11.85,11.85,0,0,0,15,.1l.64-.51Z" fill="#f9b499"/>
<path d="M248.84,308.24s2.79,9.13,9.2,9c5.28-.08,6.13-9,6.13-9Z" fill="#f7a48b"/>
<path d="M270.54,290.09A61.62,61.62,0,0,1,269,304c-.76,3.38-3,5.74-6.08,7.66l-.56.35a10.85,10.85,0,0,1-10.93.17h0c-3.4-1.93-5.78-4.49-6.53-8.11a90.51,90.51,0,0,1-1.54-13.87s-1.91-15.22,12.75-15S270.54,290.09,270.54,290.09Z" fill="#f9b499"/>
<path d="M243.86,297.43S246,281,245,278.26C245,278.26,237.59,284.37,243.86,297.43Z" fill="#404040" data-secondary="true"/>
<path d="M270,297.3s-2.45-15.72-1.77-20.24C268.22,277.06,275.35,283.37,270,297.3Z" fill="#404040" data-secondary="true"/>
<path d="M267.71,275.94l-6.76-1-.59-1.17-3.57.54-3.57-.54-.59,1.17-6.76,1-.9,3.61.22,4.17s1.07-4.73,4.79-3.78c.88.22,1.93.59,3.16.83a16.91,16.91,0,0,0,3.28.39h.74a17,17,0,0,0,3.28-.39,24.87,24.87,0,0,0,3.16-.83c3.45-1.21,4.72,3.57,4.72,3.57l.29-4Z" fill="#1d0300"/>
<path d="M267.58,280.05a9,9,0,0,1-10,.91s-14.33,8.83-18.37-.78c-3.37-8,10.62-18.88,25.06-6.63Z" fill="#404040" data-secondary="true"/>
<polygon points="274.19 531.51 276.51 560.34 289.25 560.74 289.28 526.55 274.19 531.51" fill="#f9b499"/>
<path d="M276.27,557.28s8.83,5.15,13.23-2.92l32.31,17.15-50.32-.3Z" fill="#f59a24" data-primary="true"/>
<g clip-path="url(#c)">
<path d="M316.06,561.29s-12.42,1.86-11.47,17.31l21.5-5.89Z" fill="#fff"/>
</g>
<rect x="294.44" y="548.4" width="4.4" height="50.33" transform="translate(-278.73 866.68) rotate(-89.65)" fill="#fff"/>
<path d="M293.33,562.75a.75.75,0,0,0,.35-.26,17.51,17.51,0,0,1,3.94-3.84.78.78,0,0,0,.23-1.12.88.88,0,0,0-1.17-.22,18.87,18.87,0,0,0-4.37,4.23.79.79,0,0,0,.19,1.13A.88.88,0,0,0,293.33,562.75Z" fill="#fff"/>
<path d="M297.44,564.81a.75.75,0,0,0,.35-.26,17.24,17.24,0,0,1,3.94-3.84.78.78,0,0,0,.23-1.12.86.86,0,0,0-1.16-.22,18.33,18.33,0,0,0-4.38,4.23.79.79,0,0,0,.19,1.12A.86.86,0,0,0,297.44,564.81Z" fill="#fff"/>
<path d="M301.55,566.87a.85.85,0,0,0,.35-.27,17.8,17.8,0,0,1,3.94-3.84.77.77,0,0,0,.24-1.11.87.87,0,0,0-1.17-.22,18.4,18.4,0,0,0-4.37,4.23.78.78,0,0,0,.18,1.12A.88.88,0,0,0,301.55,566.87Z" fill="#fff"/>
<polygon points="245.03 531.51 245.8 560.34 233.06 560.74 229.94 526.55 245.03 531.51" fill="#f9b499"/>
<path d="M245.82,557.28s-8.82,5.15-13.23-2.92l-32.31,17.15,50.32-.3Z" fill="#f59a24" data-primary="true"/>
<g clip-path="url(#d)">
<path d="M206,561.29s12.43,1.86,11.47,17.31L196,572.71Z" fill="#f59a24" data-primary="true"/>
</g>
<rect x="200.29" y="571.36" width="50.33" height="4.4" transform="translate(-3.5 1.39) rotate(-0.35)" fill="#fff"/>
<path d="M228.76,562.75a.81.81,0,0,1-.35-.26,17.51,17.51,0,0,0-3.94-3.84.78.78,0,0,1-.23-1.12.88.88,0,0,1,1.17-.22,18.87,18.87,0,0,1,4.37,4.23.79.79,0,0,1-.19,1.13A.88.88,0,0,1,228.76,562.75Z" fill="#fff"/>
<path d="M224.65,564.81a.75.75,0,0,1-.35-.26,17.24,17.24,0,0,0-3.94-3.84.78.78,0,0,1-.23-1.12.86.86,0,0,1,1.16-.22,18.33,18.33,0,0,1,4.38,4.23.78.78,0,0,1-.19,1.12A.86.86,0,0,1,224.65,564.81Z" fill="#fff"/>
<path d="M220.54,566.87a.85.85,0,0,1-.35-.27,17.8,17.8,0,0,0-3.94-3.84.78.78,0,0,1-.24-1.11.87.87,0,0,1,1.17-.22,18.4,18.4,0,0,1,4.37,4.23.78.78,0,0,1-.18,1.12A.88.88,0,0,1,220.54,566.87Z" fill="#fff"/>
<path d="M259,420.39,270.3,545.57h22.48L284.3,395.92l-27.89-2.47-23.09-1.14L224,471.58a12.11,12.11,0,0,0,12.3,13.36h0a12.1,12.1,0,0,0,11.65-9.85Z" fill="#404040" data-secondary="true"/>
<line x1="248.93" y1="419.16" x2="263.41" y2="421.01" fill="none" stroke="#000" stroke-linecap="round" stroke-linejoin="round" stroke-width="0.95" opacity="0.2"/>
<polygon points="297.31 547.76 267.66 547.76 266.23 534.33 295.88 534.33 297.31 547.76" fill="#f59a24" data-primary="true"/>
<polygon points="247.94 475.1 249.32 543.64 225.59 543.64 223.99 471.58 247.94 475.1" fill="#404040" data-secondary="true"/>
<rect x="222.55" y="534.33" width="29.65" height="13.43" fill="#f59a24" data-primary="true"/>
<path d="M281.58,332.84l-16.8-6.63-15.94.14-21,9.83c-1.65,1-1.34,3-.74,4.81l4.75,56.18,52.72-.72L288,339.36C288.43,337.49,283.32,333.68,281.58,332.84Z" fill="#f59a24" data-primary="true"/>
<path d="M248.84,326.35l-4.7,2.16s0,7.87,12.71,7.46c13.09-.42,13.06-7.83,13.06-7.83l-5.13-1.93Z" fill="#f9b499"/>
<polygon points="309.31 367.94 273.87 351.01 291.45 340.56 307.19 350.3 309.31 367.94" fill="#f9b499"/>
<path d="M302.74,312.77l6.86-2.46,12.14,47.86a8.4,8.4,0,0,1-7.17,11h0a8.4,8.4,0,0,1-9.11-7.19Z" fill="#f9b499"/>
<path d="M302.74,312.77l-3.27-3.61a16.11,16.11,0,0,1-3.62-6.59l-1.19-4.32a1.73,1.73,0,0,1,1.49-2.17h0a2.22,2.22,0,0,1,2.17,1.17l2.21,4.21.61-18.6a1.34,1.34,0,0,1,1.52-1.3l.53.08a1.32,1.32,0,0,1,1.15,1.23l0,11,1.77-12.66a1.33,1.33,0,0,1,1.59-1.2l.39.08a1.31,1.31,0,0,1,1.06,1.4l-1.45,13.23,3.11-10.35a1.33,1.33,0,0,1,1.9-.83l.15.08a1.32,1.32,0,0,1,.69,1.42l-2.07,11.15,2.12-6.57a1.34,1.34,0,0,1,2.19-.55h0a1.33,1.33,0,0,1,.38,1.25L310.64,315Z" fill="#f9b499"/>
<path d="M300.53,301.46a8.73,8.73,0,0,1,5.46,5" fill="none" stroke="#f7a48b" stroke-linecap="round" stroke-linejoin="round"/>
<line x1="304.66" y1="349.48" x2="305.39" y2="358.6" fill="none" stroke="#f7a48b" stroke-linecap="round" stroke-linejoin="round"/>
<path d="M279.24,332c13.15,4,22.24,14.73,22.24,14.73l-9.89,19.63-22.7-10.53Z" fill="#f59a24" data-primary="true"/>
<line x1="286.5" y1="364.04" x2="280.05" y2="361.04" fill="none" stroke="#000" stroke-linecap="round" stroke-linejoin="round" stroke-width="0.95" opacity="0.2"/>
<path d="M217.49,354.39l-8,28.79c-.91,4.58,4.51,9.77,8.9,10.94h0c4.34,1.15,3.42-2.25,4.56-6.71l10.89-27.24Z" fill="#f9b499"/>
<path d="M210.26,386.52c1.42,5.88,20,18.85,20,18.85l10.65.1-19.33-26.7Z" fill="#f9b499"/>
<path d="M244.21,408.29a9.5,9.5,0,0,0,5.39.82,1.6,1.6,0,0,0,.4-3c-3.48-1.79-10.81-6-13.7-7l-5-1.41-4.74,4.71,3.72,3s.89,4.71,2.71,6.31C233,411.68,240.84,412.9,244.21,408.29Z" fill="#f9b499"/>
<line x1="224.69" y1="383.06" x2="221.58" y2="378.77" fill="none" stroke="#f7a48b" stroke-linecap="round" stroke-linejoin="round"/>
<path d="M227.82,336.18s-13.26,4.43-16,28L238.06,372l7.3-22.75Z" fill="#f59a24" data-primary="true"/>
<line x1="229.77" y1="369.99" x2="228.59" y2="356.92" fill="none" stroke="#000" stroke-linecap="round" stroke-linejoin="round" stroke-width="0.95" opacity="0.2"/>
</g>
</svg>